<svg width="32" height="32" viewBox="0 0 32 32" fill="none" xmlns="http://www.w3.org/2000/svg">
<rect width="32" height="32" fill="#A16445"/>
<path d="M13.9383 20.964C14.2155 20.964 14.4532 20.8725 14.6507 20.6895C14.8482 20.5066 14.9619 20.2737 14.9917 19.9903V14.6805C14.9917 14.0908 14.912 13.5329 14.7526 13.0083C14.5932 12.483 14.3576 12.0582 14.0444 11.7339C13.7318 11.4096 13.3451 11.2474 12.885 11.2474H12.8233C11.8559 11.2474 10.9986 11.5308 10.2523 12.097C9.50589 12.6632 8.98822 13.395 8.69924 14.2918V19.9113C8.69924 20.2065 8.8025 20.4553 9.00901 20.659C9.21552 20.8628 9.46639 20.9647 9.76092 20.9647V21H6V20.9647C6.28898 20.9647 6.53708 20.8628 6.74359 20.659C6.9501 20.4553 7.05336 20.2065 7.05336 19.9113V12.2211C7.05336 11.9258 6.9501 11.6757 6.74359 11.4692C6.53708 11.2626 6.28898 11.1594 6 11.1594V11.124H7.42481C7.77893 11.124 8.0797 11.2495 8.32779 11.5003C8.57589 11.7512 8.69924 12.0534 8.69924 12.4075V13.6112C9.08247 12.8267 9.63895 12.1954 10.3673 11.7173C11.0956 11.2391 11.9141 11.0007 12.8233 11.0007H12.885C13.8233 11.0007 14.6209 11.2571 15.2786 11.7706C15.9362 12.2841 16.3624 12.9744 16.5572 13.8413C16.9113 12.9979 17.4643 12.3132 18.2162 11.7879C18.9681 11.2626 19.8226 11 20.7782 11H20.8316C21.5572 11 22.203 11.1545 22.7699 11.4643C23.3368 11.7741 23.7817 12.2065 24.106 12.7609C24.4304 13.3153 24.5925 13.9556 24.5925 14.6812V19.9113C24.5925 20.2065 24.6958 20.4553 24.9023 20.659C25.1088 20.8628 25.3562 20.9647 25.6459 20.9647V21H21.885V20.9647C22.1622 20.9647 22.4012 20.8732 22.6015 20.6902C22.8018 20.5073 22.9141 20.2744 22.9376 19.991V14.6812C22.9376 14.0915 22.8593 13.5336 22.7034 13.009C22.5468 12.4837 22.3125 12.0589 22 11.7346C21.6875 11.4103 21.298 11.2481 20.8316 11.2481H20.7782C19.7928 11.2481 18.9231 11.5398 18.1677 12.124C17.4123 12.7082 16.8995 13.4636 16.6279 14.3895C16.6334 14.4837 16.6369 14.5814 16.6369 14.6812V19.9113C16.6369 20.2065 16.7401 20.4553 16.9466 20.659C17.1532 20.8628 17.4006 20.9647 17.6902 20.9647V21H13.9383V20.9647V20.964Z" fill="#D1BAA3"/>
</svg>
